<?xml version="1.0" encoding="utf-8"?>
<!-- Generator: Adobe Illustrator 19.0.1, SVG Export Plug-In . SVG Version: 6.00 Build 0)  -->
<svg version="1.1" id="Layer_1" xmlns="http://www.w3.org/2000/svg" xmlns:xlink="http://www.w3.org/1999/xlink" x="0px" y="0px"
	 viewBox="25.5 -56.4 335 472.8" style="enable-background:new 25.5 -56.4 335 472.8;" xml:space="preserve">
<style type="text/css">
	.st0{fill:#E44D26;}
	.st1{fill:#F16529;}
	.st2{fill:#EBEBEB;}
	.st3{fill:#FFFFFF;}
</style>
<title>HTML5 Logo</title>
<path d="M63.2-45.1h20.2v20h18.6v-20h20.2v60.7h-20.2V-4.6H83.6v20.2H63.2 M149-24.9h-17.8v-20.2h56v20.2h-17.9v40.4H149
	 M196.1-45.1h21.2l13,21.4l13-21.4h21.2v60.7h-20.2v-30.1L230.1,7.3l-14.2-21.8v30.1h-19.9 M274.5-45.1h20.2v40.6h28.7v20h-48.9"/>
<path class="st0" d="M62.5,369l-29-325.7h319l-29,325.5l-130.7,36.2"/>
<path class="st1" d="M193,377.4V70.1h130.4l-24.9,277.9"/>
<path class="st2" d="M92.8,109.9H193v39.9h-56.4l3.7,40.9H193v39.8h-89.3 M105.4,250.6h40.1l2.8,31.9l44.7,12v41.7l-81.9-22.9"/>
<path class="st3" d="M292.9,109.9H192.8v39.9h96.4 M285.6,190.7h-92.8v39.9h49.2l-4.7,51.9l-44.6,12V336l81.8-22.7"/>
</svg>
